# xmcd CD database file
#
# Track frame offsets:
#	150
#	70450
#	126400
#	187600
#	237100
#	290050
#
# Disc length: 4228 seconds
#
# Revision: 2
# Processed by: cddbd v1.5.2PL0 Copyright (c) Steve Scherf et al.
# Submitted via: CDex 1.51
#
DISCID=56108206
DTITLE=Saint-Saëns - Concertos pour piano (Michel Plasson, Orch. Capitol de Toulouse - P.Entremont, piano) 2/2
DYEAR=1900
DGENRE=Classique
TTITLE0=Concerto pour piano N°3 en mi bémol majeur, Op.29 - II. Andante - III. Allegro non toppo
TTITLE1=Concerto pour piano N°4 en mi ut mineur, Op.44 - I. Allegro moderato - Andante
TTITLE2=Concerto pour piano N°4 en mi ut mineur, Op.44 - II. Allegro vivace
TTITLE3=Concerto pour piano N°5 en fa majeur, Op.103 (L'Égyptien) - I. Allegro animato
TTITLE4=Concerto pour piano N°5 en fa majeur, Op.103 - II. Allegro vivace - Andante - Allegro
TTITLE5=Concerto pour piano N°5 en fa majeur, Op.103 - III. Molto allegro
EXTD=Philippe Entremont, Klavier\nL'orchestre du capitole de Toulouse
EXTT0=
EXTT1=
EXTT2=
EXTT3=
EXTT4=
EXTT5=
PLAYORDER=
